<svg width="44" height="44" viewBox="0 0 44 44" fill="none" xmlns="http://www.w3.org/2000/svg">
<path d="M35.8414 1.76H8.15824L1.75977 7.24433V36.7557L8.15824 42.24H35.8414L42.2399 36.7557L42.2396 7.24433L35.8414 1.76ZM37.931 9.42068L33.9265 5.9822L35.7112 3.37042L40.4993 7.50541L37.931 9.42068ZM30.2701 33.5782H13.7298L10.4218 30.7491L10.4215 13.2512L13.7295 10.3784H30.2698L33.5777 13.2075V30.7053L30.2701 33.5782ZM30.1832 9.11599H13.8171L12.1629 6.76569H31.7936L30.1832 9.11599ZM12.6418 9.63853L9.72551 12.1197L7.11373 10.2045L10.8137 7.02706L12.6418 9.63853ZM9.1159 13.2947V30.7055L6.76559 32.4465V11.5535L9.1159 13.2947ZM9.72526 31.8808L12.6416 34.362L10.8569 36.9737L7.15693 33.7964L9.72526 31.8808ZM13.8169 34.8842H30.1395L31.7936 37.2345H12.2065L13.8169 34.8842ZM31.3583 34.3617L34.2746 31.8805L36.8864 33.7958L33.1864 36.9732L31.3583 34.3617ZM34.8842 30.7055V13.2947L37.2345 11.5537V32.4467L34.8842 30.7055ZM34.2748 12.1194L31.3585 9.63824L33.1432 7.02646L36.8432 10.2039L34.2748 12.1194ZM32.7079 5.41643H11.2926L9.63846 3.06612H34.3618L32.7079 5.41643ZM10.0738 5.98237L6.06932 9.42085L3.45754 7.50559L8.24567 3.37059L10.0738 5.98237ZM5.41657 10.5962V33.4043L3.06626 35.1453L3.06596 8.85492L5.41657 10.5962ZM6.06935 34.5796L10.0738 38.018L8.28915 40.6298L3.50102 36.4948L6.06935 34.5796ZM11.2925 38.5841H32.7078L34.3619 40.9344L9.63857 40.9347L11.2925 38.5841ZM33.9266 38.0181L37.9311 34.5796L40.5428 36.4949L35.7547 40.6299L33.9266 38.0181ZM38.5838 33.4043V10.5961L40.9341 8.85522V35.1891L38.5838 33.4043Z" fill="#272B65"/>
</svg>
