<svg width="44" height="44" viewBox="0 0 44 44" fill="none" xmlns="http://www.w3.org/2000/svg">
<path fill-rule="evenodd" clip-rule="evenodd" d="M14.0154 3.8935L11.622 10.2545H17.7932C18.8932 8.97344 20.011 7.61568 21.1854 6.13125C18.8987 5.97347 16.6409 5.19348 14.0154 3.8935ZM21.7776 6.99568C20.861 8.15011 19.9776 9.22899 19.1087 10.2545H21.7776V6.99568ZM22.7776 10.2545H25.4399C24.5732 9.22788 23.6932 8.15011 22.7776 6.99568V10.2556V10.2545ZM23.3399 6.09458C24.4496 7.50398 25.5877 8.89091 26.7532 10.2545H32.5121L30.0199 3.95461C27.5277 5.17793 25.3921 5.8857 23.3399 6.09458ZM31.1088 3.98905L33.5455 10.1479L37.2822 7.49901C35.8822 5.99903 33.9177 4.7746 31.1088 3.98905ZM37.9311 8.26456L34.431 10.7456L40.2677 13.4167C39.7988 11.5145 39.0855 9.76454 37.9322 8.26456H37.9311ZM40.3255 14.5423L33.6588 11.4934L32.9766 16.9356C34.4569 18.397 35.9623 19.8328 37.4922 21.2422L40.3255 14.5423ZM36.3977 21.5922C35.2296 20.5093 34.0754 19.4114 32.9355 18.2989V21.5922H36.3977ZM32.9355 22.5922V25.7621C34.0077 24.731 35.1388 23.6844 36.3588 22.5922H32.9366H32.9355ZM37.4977 22.9177C35.9571 24.2816 34.4493 25.682 32.9755 27.1177L33.2966 31.9243L40.3888 29.3676L37.4977 22.9177ZM40.35 30.4443L33.9999 32.7332L37.9333 35.5176C38.0755 35.3176 38.2111 35.1176 38.3388 34.9176C39.2136 33.5272 39.8901 32.0216 40.3488 30.4443H40.35ZM37.3277 36.3131L33.1432 33.3532L31.111 40.0997C33.8855 39.5642 35.8899 38.0498 37.3255 36.3109L37.3277 36.3131ZM30.0966 40.0053L32.1688 33.1209H27.2866C25.9245 34.6733 24.5899 36.2494 23.2832 37.8487C25.3865 38.052 27.5666 38.7675 30.0966 40.0053ZM22.7765 36.8887C23.8191 35.6185 24.8788 34.3624 25.9554 33.1209H22.7776V36.8876L22.7765 36.8887ZM21.7765 33.1209H18.5887C19.6694 34.3617 20.7325 35.6178 21.7776 36.8887V33.122L21.7765 33.1209ZM21.241 37.8131C19.9419 36.2249 18.6139 34.6606 17.2576 33.1209H11.602L14.0065 40.0264C16.6398 38.7231 18.9265 37.9564 21.241 37.8131ZM12.9698 40.092L10.6787 33.5076L6.61978 36.4498C8.00646 38.1053 10.0242 39.5386 12.9698 40.092ZM6.012 35.6553L9.97869 32.7798L3.80755 30.351C4.03199 31.511 4.55422 33.3654 5.68311 35.1609C5.78756 35.3265 5.89756 35.492 6.012 35.6553ZM3.86644 29.2999L10.5931 31.9465L11.5087 27.0821C10.0367 25.6549 8.53225 24.2616 6.99645 22.9033L3.86644 29.2976V29.2999ZM8.15313 22.5933C9.38758 23.6977 10.5309 24.7555 11.6187 25.7966V22.5933H8.15201H8.15313ZM11.6187 21.5933V18.2656C10.4643 19.3892 9.2961 20.4986 8.11424 21.5933H11.6187ZM6.99201 21.2689C8.55788 19.8273 10.0992 18.3593 11.6154 16.8656L10.532 11.4667L3.7231 14.5334L6.99201 21.2666V21.2689ZM3.79421 13.4067L9.86869 10.6712L6.18423 8.22234C5.04422 9.73343 4.32533 11.4956 3.79533 13.4056L3.79421 13.4067ZM6.82756 7.44901L10.652 9.9912L12.9376 3.91905C10.1354 4.70349 8.20646 5.93681 6.82645 7.44901H6.82756ZM15.4154 3.45461C17.7687 4.53571 19.7665 5.11015 21.7765 5.15793V3.00573C19.3676 3.03906 17.1209 3.23351 15.4154 3.4535V3.45461ZM22.7765 3.00017V5.13571C24.581 5.02237 26.4765 4.4846 28.7166 3.4635C26.7966 3.14351 24.7499 3.01351 22.7776 3.00017H22.7765ZM11.6587 12.0001L14.3098 14.1134C13.7054 14.7523 13.092 15.3845 12.4654 16.0156L11.6587 12.0001ZM12.6187 17.2778V26.5932L12.5909 26.7399C14.357 28.4747 16.0636 30.269 17.7076 32.1198H26.8343C28.476 30.2636 30.1807 28.464 31.9455 26.7243L31.9344 26.5632V17.31C29.9789 15.3628 28.0971 13.3429 26.2932 11.2545H18.251C16.4489 13.3321 14.5698 15.3416 12.6176 17.2789L12.6187 17.2778ZM16.9221 11.2556H12.3287L14.9976 13.3812C15.6421 12.6878 16.2809 11.9823 16.9221 11.2545V11.2556ZM27.6199 11.2556C28.1866 11.9001 28.7499 12.5267 29.3177 13.1445L31.9832 11.2556H27.6199ZM32.5799 12.0578L30.0043 13.8834C30.6843 14.6089 31.3732 15.3234 32.081 16.0389L32.5799 12.0578ZM32.0344 28.0465C31.3926 28.689 30.7592 29.3398 30.1343 29.9987L32.2655 31.5065L32.0332 28.0465H32.0344ZM31.3988 32.1198L29.4432 30.7354C29.0188 31.191 28.5977 31.651 28.1766 32.1198H31.3988ZM16.3632 32.1198C15.8609 31.5643 15.3598 31.0198 14.8543 30.4821L12.5943 32.1198H16.3632ZM11.6876 31.5421L14.1587 29.7499C13.569 29.1346 12.9719 28.5264 12.3676 27.9254L11.6876 31.5421ZM3.25977 15.87L6.03756 21.5922H3.02199C2.96532 19.6355 3.01088 17.62 3.25977 15.87ZM3.05977 22.5922C3.06643 22.7588 3.07532 22.9255 3.08421 23.0922C3.18088 24.9133 3.34532 26.581 3.48088 27.8099L6.03423 22.5922H3.05866H3.05977ZM15.4909 40.4286C18.4576 40.7897 20.1899 40.9731 21.7765 40.9964V38.792C19.7821 38.8353 17.7965 39.3842 15.4909 40.4286ZM22.7765 38.8131V40.9908C24.311 40.9486 25.9288 40.7586 28.641 40.4286C26.4499 39.4475 24.5721 38.9253 22.7765 38.8131ZM40.76 27.7521L38.4466 22.5922H40.9911C40.9655 24.3141 40.8885 26.0348 40.76 27.7521ZM41 21.5922C41.0044 19.7122 40.9377 17.7811 40.7477 16.1111L38.4288 21.5922H41ZM13.6587 2.70351C16.9098 2.14241 24.4888 1.41686 30.3943 2.77573C34.111 3.63128 36.6333 5.18237 38.3533 7.1979C40.0688 9.20899 40.9511 11.6401 41.4644 14.1912C41.9811 16.7567 42.0511 20.3955 41.9733 23.4888C41.8955 26.5743 41.6655 29.2043 41.5544 29.7543C41.4466 30.2876 40.8322 32.8698 39.1811 35.4565C37.5255 38.0498 34.7944 40.6897 30.4632 41.2153L29.2132 41.3675C25.9132 41.7697 24.1043 41.9897 22.2499 41.9997C20.1721 42.0097 18.0387 41.7531 13.6832 41.2153C9.13869 40.6531 6.42534 38.2198 4.83755 35.6931C3.25977 33.182 2.78754 30.5832 2.68199 29.6199C2.66146 29.4379 2.64035 29.2561 2.61865 29.0743C2.48087 27.891 2.21865 25.6588 2.08532 23.1444C1.92643 20.1755 1.93976 16.7533 2.5631 14.1723C3.17421 11.6367 4.05644 9.19455 5.74311 7.17013C7.43757 5.13348 9.91091 3.56461 13.632 2.70907L13.6454 2.70573L13.6587 2.70351Z" fill="#272B65"/>
</svg>
