<svg width="44" height="44" viewBox="0 0 44 44" fill="none" xmlns="http://www.w3.org/2000/svg">
<path d="M33.1904 1.76H11.2528L6.16016 7.2877V36.712L11.2094 42.24H33.147L38.1962 36.712V7.2877L33.1904 1.76ZM32.4939 10.7701L30.0999 7.941L31.1446 6.28689L34.0175 9.50797L32.4939 10.7701ZM29.0117 35.3194H15.4313L12.6455 32.0548V11.9018L15.4313 8.63727H29.0117L31.7974 11.9018V32.0984L29.0117 35.3194ZM28.9683 7.37499H15.4749L14.5173 5.89515H29.8824L28.9683 7.37499ZM13.255 6.28681L14.2998 7.94092L11.9057 10.77L10.3821 9.55126L13.255 6.28681ZM10.1211 10.9877L11.3832 11.9888V32.0112L10.1211 33.0123V10.9877ZM11.9492 33.2301L14.3433 36.0592L13.2986 37.7133L10.4257 34.4922L11.9492 33.2301ZM15.4748 36.6252H28.9247L29.8823 38.105H14.5172L15.4748 36.6252ZM31.1881 37.7133L30.1434 36.0592L32.5374 33.2301L34.061 34.4489L31.1881 37.7133ZM33.0599 32.0114V11.9889L34.322 10.9879V33.0561L33.0599 32.0114ZM35.062 8.72441L31.8846 5.15503L32.9728 3.50093L36.629 7.50541L35.062 8.72441ZM30.753 4.54596H13.6904L12.7328 3.06612H31.7106L30.753 4.54596ZM12.5151 5.15533L9.33775 8.7247L7.77077 7.46257L11.427 3.45808L12.5151 5.15533ZM8.81519 9.94315V34.1007L7.5093 35.1454V8.89858L8.81519 9.94315ZM9.38113 35.2759L12.5585 38.8453L11.4704 40.4994L7.81416 36.4949L9.38113 35.2759ZM13.6902 39.4543H30.7092L31.6668 40.9342L12.7326 40.9345L13.6902 39.4543ZM31.928 38.845L35.1054 35.2756L36.6724 36.5377L33.0162 40.5422L31.928 38.845ZM35.6279 34.1006V9.89956L36.9338 8.85483V35.1016L35.6279 34.1006Z" fill="#272B65"/>
</svg>
