<svg width="44" height="44" viewBox="0 0 44 44" fill="none" xmlns="http://www.w3.org/2000/svg">
<path d="M38.6794 7.06646C37.6341 6.02117 36.4584 5.19394 35.1953 4.6277L35.1519 4.58426H35.1084C32.8437 3.58268 30.3177 3.27767 27.9227 3.71333H27.8356C25.7015 4.14866 23.698 5.10679 21.9995 6.6309C20.3011 5.10648 18.2976 4.14837 16.1638 3.75649H16.0767C13.6813 3.32086 11.1554 3.58242 8.89097 4.62742H8.84753C8.84753 4.62742 8.80409 4.62742 8.80409 4.67086C7.54128 5.23712 6.36534 6.06464 5.31997 7.10962C0.573032 11.8566 0.573032 19.5215 5.31997 24.2685L9.89285 28.8414C9.93629 28.8849 9.98004 28.972 10.0669 29.0155L21.5643 40.5128C21.6077 40.5563 21.6077 40.5563 21.6515 40.5563H21.6949C21.7383 40.5563 21.7821 40.5997 21.7821 40.5997C21.8693 40.6432 21.9127 40.6432 21.9999 40.6432C22.0871 40.6432 22.1305 40.6432 22.2177 40.5997C22.2612 40.5997 22.3049 40.5563 22.3049 40.5563H22.3483C22.3918 40.5563 22.3918 40.5128 22.4355 40.5128L33.9329 29.0155C33.9763 28.9721 34.0635 28.9283 34.107 28.8414L38.6798 24.2685C43.4265 19.5219 43.4265 11.8131 38.6795 7.06607L38.6794 7.06646ZM29.3596 31.7596C28.7499 30.8449 28.053 29.974 27.2256 29.1464H31.9725L29.3596 31.7596ZM12.0265 29.103H16.7734C15.9897 29.974 15.249 30.8449 14.6394 31.7162L12.0265 29.103ZM11.0684 21.0026C13.1153 21.6558 15.1184 22.4398 16.9913 23.398V27.7965H11.0684V21.0026ZM3.92608 11.4215C4.8408 11.8134 5.71173 12.2053 6.53927 12.6409L3.18549 17.3007C2.88079 15.2975 3.14205 13.2506 3.92611 11.4215H3.92608ZM21.9996 11.465L27.6612 12.9456C28.8806 13.7731 29.5775 14.9925 29.7081 16.6038C28.3143 18.1282 27.0949 20.0007 26.0061 22.3088C24.6124 23.0057 23.2624 23.8332 21.9995 24.6604C20.7367 23.8328 19.3863 23.0054 17.9928 22.3088C16.9041 19.9572 15.6847 18.1278 14.2909 16.6038C14.4215 14.9488 15.0746 13.7731 16.3378 12.9456L21.9996 11.465ZM36.2406 11.77C36.1972 11.77 36.1534 11.8134 36.0665 11.8571C35.4134 12.2056 34.8037 12.554 34.194 12.9024V9.37491L38.4619 10.6815C37.7213 11.0296 36.9809 11.3778 36.2407 11.77L36.2406 11.77ZM30.8403 15.4716C30.579 14.2088 29.9693 13.2069 29.0546 12.3794L32.9306 9.72277V13.7728C32.1903 14.2959 31.4934 14.8619 30.8403 15.4716ZM27.8352 11.6828L23.2189 10.4634L28.053 5.28077L32.4515 8.50358L27.8352 11.6828ZM25.6577 27.5787C24.8739 26.8818 24.0464 26.185 23.1751 25.5319C23.9589 25.0093 24.8301 24.5303 25.6577 24.0512V27.5787ZM18.3413 24.0949C19.2123 24.574 20.0398 25.053 20.8239 25.5756C19.9529 26.2287 19.1254 26.9255 18.3413 27.6224V24.0949ZM21.9995 26.3593C23.2189 27.2302 24.3511 28.145 25.3964 29.1465L21.9995 38.1615L18.6025 29.1465C19.6478 28.145 20.7801 27.2302 21.9995 26.3593ZM16.1638 11.6828L11.5475 8.50366L15.946 5.28084L20.7802 10.4634L16.1638 11.6828ZM14.9444 12.4231C14.0297 13.2506 13.4199 14.2522 13.1587 15.5153C12.5056 14.9056 11.8087 14.3394 11.0684 13.8169V9.76682L14.9444 12.4231ZM7.93273 11.8568C7.88899 11.8568 7.88899 11.8568 7.93273 11.8568C7.88929 11.8134 7.8021 11.7697 7.75866 11.7697C7.01834 11.3778 6.27802 11.0293 5.49396 10.6809L9.76183 9.3743V12.9018C9.15214 12.5537 8.54242 12.2052 7.93271 11.8568L7.93273 11.8568ZM7.71492 13.2071C8.4118 13.599 9.10869 13.9909 9.7618 14.4266V19.2173C7.84549 18.7382 5.92927 18.3897 4.05675 18.2157L7.71492 13.2071ZM11.0684 15.4281C11.8087 15.9944 12.4622 16.6041 13.1153 17.3444C14.1606 18.4767 15.1621 19.8704 16.0332 21.4817C14.4219 20.7414 12.7234 20.1317 11.025 19.6525L11.0247 15.4281H11.0684ZM17.601 30.1482L20.3447 37.4212L15.5975 32.6739C16.1637 31.803 16.8606 30.9755 17.601 30.1482ZM26.3982 30.1482C27.1819 30.9758 27.8354 31.8032 28.4017 32.6742L23.6547 37.4211L26.3982 30.1482ZM26.9644 27.7963V23.3978C28.8807 22.4397 30.8838 21.656 32.8873 21.0025V27.7963L26.9644 27.7963ZM27.9226 21.4816C28.7935 19.8266 29.7951 18.4765 30.8404 17.3444C31.4936 16.6475 32.1904 15.9944 32.8873 15.4281V19.6525C31.2323 20.1315 29.5338 20.7412 27.9226 21.4816ZM34.2373 14.47C34.8904 14.0343 35.5873 13.6424 36.2842 13.2505L39.8989 18.3025C38.0264 18.4766 36.1101 18.7816 34.1938 19.3041V14.47H34.2373ZM37.4601 12.6408C38.2877 12.2052 39.1586 11.8133 40.0733 11.4214C40.8571 13.2939 41.1186 15.3408 40.8136 17.3009L37.4601 12.6408ZM38.9842 9.46172L34.4114 8.06795L35.1951 6.10825C36.1098 6.58732 36.9808 7.24049 37.721 7.98077C38.2439 8.45984 38.6361 8.93888 38.9842 9.46172H38.9842ZM34.0633 5.58572L33.2795 7.50202L29.7082 4.84544C31.1454 4.80169 32.6695 5.01951 34.0633 5.58576V5.58572ZM22.4788 7.98077C23.4804 6.97918 24.6129 6.2389 25.8323 5.71606L21.9998 9.8536L18.1672 5.71637C19.3866 6.23889 20.5188 6.97918 21.5207 7.98108C21.782 8.24234 22.2176 8.24234 22.4788 7.98078V7.98077ZM14.3349 4.84513L10.7636 7.50171L9.9798 5.58541C11.2426 5.10634 12.593 4.84509 13.8992 4.84509H14.3348L14.3349 4.84513ZM6.23445 7.98077C7.0182 7.19701 7.84574 6.58699 8.76038 6.10825L9.54413 8.06795L5.01503 9.46172C5.36317 8.9389 5.75535 8.45982 6.23445 7.98077ZM3.79569 19.5652C5.75539 19.7393 7.80235 20.0877 9.80575 20.654L9.80545 26.8819L6.23414 23.3106C5.14569 22.2218 4.31815 20.9152 3.7957 19.5652H3.79569ZM34.2375 26.8819V20.654C36.241 20.0877 38.2442 19.7393 40.2476 19.5652C39.7251 20.9152 38.8976 22.2218 37.8088 23.3106L34.2375 26.8819Z" fill="#272B65"/>
</svg>
