<svg width="44" height="44" viewBox="0 0 44 44" fill="none" xmlns="http://www.w3.org/2000/svg">
<path fill-rule="evenodd" clip-rule="evenodd" d="M17.5077 13.6359H11.6387V12.9089H17.5077V13.6359ZM32.1787 13.6359H26.6767V12.9089H32.1787V13.6359Z" fill="#272B65"/>
<path fill-rule="evenodd" clip-rule="evenodd" d="M26.3066 12.982L21.9086 8.62204L17.5106 12.982L21.9086 27.624L26.3066 12.982ZM27.1346 12.775L21.9096 7.59204L16.6836 12.773L21.9096 30.171L27.1356 12.773L27.1346 12.775Z" fill="#272B65"/>
<path fill-rule="evenodd" clip-rule="evenodd" d="M29.2701 12.877L21.9101 5.57905L14.5481 12.877L21.9091 33.739L29.2701 12.877ZM30.1151 12.686L21.9091 4.55005L13.7031 12.686L21.9091 35.9421L30.1151 12.686Z" fill="#272B65"/>
<path fill-rule="evenodd" clip-rule="evenodd" d="M31.967 13L21.909 3.029L11.851 13L21.91 39.907L31.967 13ZM32.818 12.816L21.91 2L11 12.816L21.91 42L32.818 12.816Z" fill="#272B65"/>
<path fill-rule="evenodd" clip-rule="evenodd" d="M21.542 8.18201V2.36401H22.276V8.18201H21.542ZM21.542 40.545V28.182H22.276V40.545H21.542Z" fill="#272B65"/>
</svg>
