<svg width="44" height="44" viewBox="0 0 44 44" fill="none" xmlns="http://www.w3.org/2000/svg">
<path d="M29.1018 34.6664C29.1452 34.6227 29.1452 34.6227 29.1018 34.6664C30.19 33.0994 31.2347 31.2713 32.0181 29.2689C32.0615 29.2255 32.1052 29.1384 32.1052 29.0512C32.9757 26.8749 33.5417 24.4808 33.5417 21.9999C33.5417 19.4318 32.9323 16.9506 32.018 14.7308C32.018 14.6436 31.9746 14.6002 31.9309 14.5131C31.1476 12.5978 30.1462 10.8568 29.1451 9.37699V9.33358L29.1017 9.29016C28.71 8.72421 28.3618 8.20197 27.9701 7.72317C27.3607 6.89607 26.7079 6.15618 26.0986 5.50335C24.1396 3.28298 22.4855 1.97708 22.3983 1.89025L22.3549 1.84684C22.3549 1.84684 22.3115 1.84684 22.3115 1.80342C22.3115 1.80342 22.2681 1.80342 22.2681 1.76H22.2247H22.1812H22.0941H22.0507H22.0073H21.9638H21.8767H21.8333C21.7899 1.76 21.7899 1.76 21.7899 1.80342C21.7899 1.80342 21.7465 1.80342 21.7465 1.84684C21.7465 1.84684 21.703 1.84684 21.703 1.89025C21.6159 1.97739 19.9621 3.32666 17.9162 5.59024C17.3503 6.24303 16.7409 6.93952 16.1753 7.72317C15.827 8.20199 15.4353 8.72422 15.0436 9.29016C15.0002 9.33358 15.0002 9.3773 14.9565 9.42072C13.9118 10.9443 12.8673 12.7724 12.0836 14.7311C12.0402 14.7745 11.9965 14.8616 11.9965 14.9488C11.126 17.1251 10.5601 19.5192 10.5601 22.0001C10.5601 24.5682 11.1694 27.0494 12.0837 29.2692C12.0837 29.3564 12.1271 29.3998 12.1708 29.4869C12.9542 31.4022 13.9555 33.1432 14.9566 34.623C14.9566 34.623 14.9566 34.6664 15 34.6664L15.0434 34.7098C15.4351 35.2758 15.7833 35.798 16.175 36.2768C18.9174 39.8462 21.616 42.0226 21.7031 42.1094C21.7465 42.1529 21.7903 42.1529 21.8337 42.1966C21.8771 42.1966 21.9642 42.24 22.0514 42.24C22.1385 42.24 22.1819 42.24 22.2691 42.1966C22.3125 42.1966 22.3562 42.1532 22.3996 42.1532C22.4868 42.066 24.1406 40.7168 26.1865 38.4098C26.7524 37.757 27.3618 37.0605 27.9274 36.2769C28.3619 35.7546 28.7098 35.2321 29.1018 34.6664L29.1018 34.6664ZM26.0546 36.538L25.6629 34.9275H27.3171C26.8817 35.4935 26.49 36.0157 26.0546 36.538H26.0546ZM16.6962 34.9275H18.3503L18.0021 36.5816C17.5667 36.0591 17.1316 35.5369 16.6962 34.9275H16.6962ZM11.908 24.0456L14.2583 27.0054L12.9091 28.0935C12.4306 26.788 12.0823 25.4384 11.908 24.0456ZM12.8656 16.0801L14.2587 17.0377L11.9517 19.9541C12.0823 18.6482 12.4305 17.3423 12.8656 16.0801ZM17.9586 7.46168L18.3502 9.07211H16.6961C17.1315 8.50616 17.5232 7.98393 17.9586 7.46168H17.9586ZM27.317 9.07211H25.6629L26.0111 7.41799C26.4465 7.94053 26.8816 8.46273 27.317 9.07211H27.317ZM32.1052 19.954L29.7548 16.9943L31.1041 15.9061C31.5826 17.2117 31.9309 18.5613 32.1052 19.954ZM31.1476 27.9195L29.7545 26.9619L32.0615 24.0456C31.9309 25.3515 31.5827 26.6574 31.1476 27.9195ZM22.0068 29.7477L19.221 27.6584L17.9151 21.9564L19.221 16.2544L22.0068 14.1651L24.7925 16.2544L26.0984 21.9564L24.7925 27.6584L22.0068 29.7477ZM17.7412 27.1359L16.0436 26.657L17.0447 24.1758L17.7412 27.1359ZM17.0881 19.8234L16.087 17.3422L17.7846 16.8634L17.0881 19.8234ZM18.0457 15.4272L15.8693 16.0366L16.0433 10.3779H18.4807L18.0457 15.4272ZM14.9988 18.1692L16.5225 21.9997L14.9988 25.7865L11.952 21.9997L14.9988 18.1692ZM15.8693 27.9629L18.0457 28.5722L18.4811 33.6215H16.087L15.8693 27.9629ZM26.2724 16.8634L27.9699 17.3422L26.9254 19.8231L26.2724 16.8634ZM26.9255 24.1758L27.9265 26.6571L26.229 27.1359L26.9255 24.1758ZM29.0147 25.83L27.4911 21.9995L29.0147 18.2127L32.0616 21.9995L29.0147 25.83ZM28.1442 16.0363L25.9679 15.4269L25.5325 10.3776H27.9266L28.1442 16.0363ZM25.9679 28.5722L28.1442 27.9628L27.9703 33.6215H25.5762L25.9679 28.5722ZM29.4501 28.3111L30.6689 29.1815C30.2772 30.0958 29.7984 31.0097 29.3196 31.8802L29.4501 28.3111ZM29.4501 15.601L29.3196 12.1625C29.7984 12.9896 30.2338 13.8167 30.5817 14.6871L29.4501 15.601ZM24.3137 11.466L24.5749 14.5566L22.921 13.2942L24.3137 11.466ZM22.0068 12.3365L19.9175 9.59418L22.0068 4.24038L24.096 9.63786L22.0068 12.3365ZM21.0926 13.2941L19.4384 14.5562L19.6995 11.4656L21.0926 13.2941ZM14.5634 15.6882L13.3447 14.8177C13.7363 13.9035 14.2151 12.9896 14.6939 12.1191L14.5634 15.6882ZM14.5634 28.3982L14.694 31.8367C14.2152 31.0096 13.7798 30.1826 13.4318 29.3121L14.5634 28.3982ZM19.6998 32.5332L19.395 29.4429L21.0491 30.7051L19.6998 32.5332ZM22.0068 31.6628L24.096 34.4051L22.0068 39.7589L19.9175 34.3614L22.0068 31.6628ZM22.921 30.7052L24.5751 29.443L24.314 32.5336L22.921 30.7052ZM24.9231 6.15566L24.662 7.41781L23.6173 4.76263C24.0093 5.19803 24.4881 5.67686 24.9232 6.15566H24.9231ZM20.3964 4.80639L19.3517 7.5487L19.0468 6.2428C19.4822 5.72026 19.9611 5.24143 20.3964 4.80639H20.3964ZM19.0905 37.8437L19.3516 36.5816L20.3964 39.2368C20.0044 38.8014 19.5256 38.3225 19.0905 37.8437H19.0905ZM23.6172 39.193L24.662 36.4507L24.9668 37.7566C24.5314 38.2792 24.0526 38.758 23.6172 39.193H23.6172Z" fill="#272B65"/>
</svg>
