<svg width="44" height="44" viewBox="0 0 44 44" fill="none" xmlns="http://www.w3.org/2000/svg">
<path d="M34.2536 29.6176C34.297 29.5742 34.297 29.4871 34.297 29.3999C34.9064 27.093 35.2546 24.6117 35.2546 22.0003C35.2546 19.258 34.863 16.6899 34.2099 14.2958C34.2099 14.2524 34.1665 14.1652 34.1665 14.1218C33.5137 11.8148 32.556 9.72559 31.3807 7.94087V7.89745V7.85403C31.3807 7.81062 31.3373 7.81062 31.3373 7.81062C31.3373 7.81062 31.3373 7.7672 31.2939 7.7672L31.2067 7.68006C29.9879 5.85189 28.5081 4.37202 26.854 3.37073C26.8105 3.28329 26.7668 3.23987 26.6797 3.23987C25.1127 2.28226 23.3716 1.76 21.5869 1.76C19.7154 1.76 17.8869 2.32595 16.2765 3.37045C16.1894 3.41387 16.146 3.45759 16.0588 3.50101C14.5352 4.50207 13.0991 5.93849 11.9238 7.67983L11.8369 7.76667C11.8369 7.76667 11.8369 7.81009 11.7935 7.81009L11.7501 7.85351V7.89692V7.94034C10.5313 9.76851 9.57371 11.9449 8.92095 14.3824C8.87753 14.4258 8.87753 14.5129 8.87753 14.6001C8.26816 16.907 7.91992 19.3883 7.91992 21.9997C7.91992 24.742 8.3116 27.3101 8.96467 29.7042C8.96467 29.7476 9.00808 29.8348 9.00808 29.8782C9.66088 32.1852 10.6185 34.2744 11.7939 36.0591C11.7939 36.1026 11.8373 36.1463 11.881 36.1897V36.2331C11.9244 36.2765 11.9244 36.3203 11.9681 36.3203C13.1869 38.1484 14.6668 39.6283 16.3209 40.6296C16.3643 40.673 16.4515 40.7167 16.5386 40.7601C18.1056 41.7178 19.8467 42.24 21.6747 42.24C23.5463 42.24 25.3748 41.6741 27.0286 40.6296C27.1157 40.5861 27.1591 40.5424 27.2463 40.499C28.7699 39.4979 30.206 38.0615 31.3813 36.3202C31.4685 36.233 31.5119 36.1462 31.5553 36.0591C32.5995 34.2315 33.5571 32.0117 34.2536 29.6176L34.2536 29.6176ZM9.87807 15.6452L12.3155 17.0816L9.18155 20.3462C9.26838 18.6924 9.52981 17.1253 9.87806 15.6452H9.87807ZM33.2089 28.3553L30.7715 26.9189L33.9055 23.6543C33.8186 25.3081 33.5572 26.8752 33.209 28.3553H33.2089ZM31.2068 33.8831L30.554 28.3116L32.9044 29.6608C32.4256 31.1845 31.8596 32.5772 31.2068 33.883L31.2068 33.8831ZM24.4166 32.7515L22.5447 30.7057L24.7646 29.3126L24.4166 32.7515ZM18.6708 11.2488L20.5423 13.2946L18.3225 14.6876L18.6708 11.2488ZM29.9009 25.9611L27.9856 22L29.9009 18.0389L33.6878 22L29.9009 25.9611ZM27.42 20.1719L26.5058 16.8202L28.7693 17.3425L27.42 20.1719ZM25.0259 27.6587L21.5436 29.8351L18.0613 27.6587L16.4943 22L18.0613 16.3413L21.5436 14.165L25.0259 16.3413L26.5929 22L25.0259 27.6587ZM24.4599 11.2488L24.8082 14.6873L22.5447 13.2946L24.4599 11.2488ZM21.5436 12.4675L18.9318 9.59462L21.5436 3.9797L24.1554 9.63838L21.5436 12.4675ZM15.6672 20.172L14.3179 17.3862L16.5814 16.864L15.6672 20.172ZM13.1862 18.0391L15.1015 22.0002L13.1862 25.9613L9.3994 22.0002L13.1862 18.0391ZM15.6672 23.8283L16.5814 27.18L14.3179 26.6578L15.6672 23.8283ZM18.6272 32.7515L18.2789 29.3129L20.4988 30.706L18.6272 32.7515ZM21.5436 31.5327L24.1554 34.4056L21.5436 40.0205L18.9318 34.3618L21.5436 31.5327ZM27.42 23.8282L28.7693 26.614L26.5057 27.1362L27.42 23.8282ZM33.9055 20.3025L30.728 16.9945L33.1655 15.384C33.5572 16.9507 33.8186 18.6049 33.9054 20.3025L33.9055 20.3025ZM30.5541 15.6015L31.2068 10.1171C31.8596 11.3359 32.3822 12.6417 32.8173 14.0782L30.5541 15.6015ZM29.161 16.1238L26.1575 15.4273L25.6353 10.2474L29.988 9.07205L29.161 16.1238ZM22.5884 3.1525C23.6766 3.28306 24.7211 3.63132 25.6787 4.15356L24.7645 7.76636L22.5884 3.1525ZM18.2791 7.89695L17.1909 4.28414C18.2356 3.67477 19.3673 3.28308 20.4989 3.1525L18.2791 7.89695ZM16.886 15.4275L13.9263 16.124L13.0558 9.02889L17.452 10.2042L16.886 15.4275ZM11.8805 10.1171L12.5333 15.6887L10.2263 14.3394C10.6617 12.8157 11.2277 11.423 11.8804 10.1172L11.8805 10.1171ZM9.18184 23.6978L12.3593 27.0058L9.92181 28.6162C9.53013 27.0496 9.26872 25.3953 9.18188 23.6978L9.18184 23.6978ZM12.5332 28.3988L11.8805 33.8832C11.2277 32.6644 10.7051 31.3586 10.27 29.9221L12.5332 28.3988ZM13.9263 27.8765L16.9298 28.573L17.452 33.7529L13.0992 34.9282L13.9263 27.8765ZM20.4989 40.8478C19.4107 40.7172 18.366 40.369 17.4083 39.8467L18.3225 36.2339L20.4989 40.8478ZM24.8082 36.1033L25.8964 39.7162C24.8517 40.2821 23.7635 40.6738 22.6318 40.8478L24.8082 36.1033ZM26.2013 28.5728L29.161 27.8763L30.0315 34.9714L25.6353 33.7961L26.2013 28.5728ZM29.7269 7.76653L25.853 8.81128L26.854 4.89393C27.8988 5.63387 28.8562 6.63489 29.7269 7.76653ZM16.1028 5.02452L17.2344 8.81136L13.4039 7.76661C14.1875 6.67842 15.1018 5.72081 16.1028 5.0246L16.1028 5.02452ZM13.3604 36.2339L17.2344 35.1892L16.2333 39.1065C15.1886 38.3666 14.2312 37.3656 13.3604 36.2339ZM26.9846 38.9759L25.8964 35.2326L29.7269 36.2773C28.8998 37.322 27.9857 38.2797 26.9846 38.9759Z" fill="#272B65"/>
</svg>
