<svg width="44" height="44" viewBox="0 0 44 44" fill="none" xmlns="http://www.w3.org/2000/svg">
<path d="M33.6896 9.46447C33.733 9.50788 33.733 9.55161 33.7767 9.59502C34.5167 10.988 35.0389 12.6418 35.3003 14.5571V14.6005C35.3875 15.3404 35.4309 16.0803 35.4309 16.864C35.4309 21.4777 33.2111 27.1363 28.7713 33.6653C25.5502 38.4968 22.242 42.0225 22.1986 42.066C22.1552 42.1094 22.1114 42.1532 22.068 42.1532H22.0246C21.9812 42.1966 21.9375 42.1966 21.894 42.1966H21.8506C21.8072 42.1966 21.7635 42.24 21.6767 42.24C21.5027 42.24 21.3284 42.1529 21.1978 42.0223C21.1544 41.9789 17.8028 38.4529 14.4949 33.6216C10.0551 27.0926 7.83526 21.4341 7.92239 16.7767C7.92239 16.0802 7.96581 15.4275 8.05295 14.7743C8.27064 13.0334 8.70573 11.4227 9.35883 9.98623V9.94281C10.1859 8.07131 11.4046 6.50434 12.9716 5.19846C15.9312 2.6739 19.5006 1.75999 21.6334 1.75999C22.6781 1.75999 24.2452 2.06483 25.9861 2.76104C26.0732 2.76104 26.1166 2.76104 26.2038 2.80445C26.2472 2.84787 26.2909 2.84787 26.3343 2.89159C27.5531 3.41382 28.8155 4.11034 29.9905 5.06794C30.1211 5.11135 30.2082 5.19849 30.2516 5.28563C31.6437 6.41725 32.7753 7.76651 33.6895 9.46405L33.6896 9.46447ZM26.3335 4.2847L25.9852 5.06833H27.7699C27.2911 4.7635 26.8123 4.5458 26.3335 4.2847H26.3335ZM15.4953 5.06833H17.4977L17.1494 4.19788C16.5835 4.45899 16.061 4.7201 15.4953 5.06833H15.4953ZM9.74961 20.6509H10.4024L9.35766 18.0392C9.40139 18.9099 9.53194 19.7804 9.74964 20.6509H9.74961ZM32.7318 10.4657H31.3825L33.5589 12.6855C33.3412 11.9021 33.0801 11.1622 32.7318 10.4657ZM21.7195 32.142L19.456 34.3184C20.3702 36.7124 21.1969 38.7145 21.7195 39.9769C22.2417 38.7148 23.1125 36.669 23.983 34.275L21.7195 32.142ZM24.5052 32.9688C25.1146 31.3147 25.724 29.5737 26.2461 27.8328L22.6768 31.2279L24.5052 32.9688ZM20.8053 31.2279L17.1925 27.7894C17.7585 29.5303 18.3678 31.315 18.9335 32.9692L20.8053 31.2279ZM21.7195 30.3137L26.9426 25.3516C27.6391 22.7836 28.1179 20.3896 28.1179 18.5615C28.1179 14.4699 26.4204 12.0759 24.6795 10.8137C24.6361 10.7703 24.5489 10.7266 24.5055 10.6832C23.4173 9.94324 22.3292 9.63844 21.7198 9.63844C21.067 9.63844 20.0222 9.94328 18.9341 10.6832C18.8906 10.7266 18.8035 10.7703 18.7601 10.8137C17.0192 12.0758 15.3216 14.4699 15.3216 18.5615C15.3216 20.3462 15.8004 22.7402 16.4532 25.2645L21.7195 30.3137ZM31.9918 19.8672L33.9071 14.818L30.1638 11.0747L29.0756 15.1226L31.9918 19.8672ZM29.4238 18.1697V18.5614C29.4238 19.9977 29.1627 21.7387 28.7273 23.654L31.2953 21.2166L29.4238 18.1697ZM14.0153 18.1697L12.1872 21.2165L14.6684 23.6105C14.233 21.739 13.9719 19.9978 13.9719 18.6051C14.0153 18.4308 14.0153 18.3003 14.0153 18.1697L14.0153 18.1697ZM16.7142 10.9007H14.4944L15.1909 13.1205C15.626 12.2066 16.1482 11.5101 16.7142 10.9007H16.7142ZM14.1459 9.59482H17.8024V6.37375H14.1462L14.1459 9.59482ZM19.108 9.02887C19.5434 8.81117 19.935 8.6372 20.3701 8.50665L19.108 7.2879V9.02887ZM21.7197 8.07129L24.07 5.72099L21.7197 3.37069L19.3694 5.72099L21.7197 8.07129ZM23.069 8.55009C23.4607 8.68065 23.8961 8.85493 24.3311 9.07232V7.3314L23.069 8.55009ZM25.637 9.59482H29.1626L29.1629 6.37375H25.637L25.637 9.59482ZM26.7252 10.9007C27.2911 11.5101 27.8133 12.25 28.2488 13.1642L28.8581 10.9007H26.7252ZM33.0802 20.6507H33.6025C33.8202 19.7803 33.9507 18.9098 34.0379 18.0827L33.0802 20.6507ZM32.8191 21.9566L32.8625 23.2625C33.0365 22.8271 33.1674 22.392 33.2979 21.9566H32.8191ZM31.5132 22.8271L28.1181 26.0481C27.6393 27.8328 27.03 29.7043 26.4206 31.489L31.5566 26.1353L31.5132 22.8271ZM23.9832 37.9744C24.5054 37.3216 25.0713 36.6251 25.6373 35.8415L25.0279 35.2756C24.6359 36.2769 24.2877 37.1908 23.9832 37.9745L23.9832 37.9744ZM18.4117 35.2755L17.8024 35.8849C18.4117 36.7119 19.0211 37.4518 19.5433 38.1047C19.195 37.2345 18.8034 36.3203 18.4117 35.2756L18.4117 35.2755ZM15.2778 25.9608L12.0567 22.914L12.1873 26.875L17.0622 31.6631C16.4529 29.7913 15.8001 27.8326 15.2779 25.9608L15.2778 25.9608ZM10.7508 21.9563H10.0981C10.3158 22.6528 10.5335 23.3493 10.7946 24.0455L10.7508 21.9563ZM9.79326 12.9898L11.8825 10.9005H10.4895C10.2286 11.5533 9.96754 12.2498 9.79326 12.9898ZM9.57587 15.079L11.4911 19.8671L14.4508 14.9485L13.3192 11.3791L9.57587 15.079ZM18.7165 4.54547L19.9786 3.28334C19.4564 3.37048 18.9339 3.54446 18.4117 3.71873L18.7165 4.54547ZM24.7667 4.58919L25.115 3.80586C24.549 3.58817 24.0268 3.45761 23.5046 3.32705L24.7667 4.58919ZM30.4687 9.15928H32.0356C31.5568 8.41936 31.0346 7.81002 30.4687 7.20064V9.15928ZM29.3805 30.2698L25.6806 34.1002L26.3771 34.7967C27.3784 33.4037 28.4228 31.8802 29.3805 30.2698L29.3805 30.2698ZM17.0189 34.8402L17.7588 34.1437L14.1461 30.5743C15.0603 32.0979 16.0613 33.5343 17.0189 34.8402L17.0189 34.8402ZM11.0992 9.59462H12.7968V7.24432C12.144 7.94052 11.578 8.72416 11.0992 9.59462Z" fill="#272B65"/>
</svg>
