<svg width="44" height="44" viewBox="0 0 44 44" fill="none" xmlns="http://www.w3.org/2000/svg">
<path d="M1.75977 1.76V42.24H42.2398V1.76H1.75977ZM35.7543 13.2076L31.445 12.5111L30.7485 8.20183L40.2374 3.76232L35.7543 13.2076ZM8.24527 30.7924L12.5545 31.4889L13.251 35.7982L3.76215 40.2377L8.24527 30.7924ZM35.1884 29.5737L31.7062 30.1396L32.6638 24.1762L35.1884 29.5737ZM31.6628 22.0871L30.3136 30.3136L22.0434 31.6629L21.9997 31.6195L21.9126 31.6629L13.686 30.3136L12.3368 22.0435L12.3802 21.9564L12.3368 21.8692L13.686 13.5991L21.9126 12.2499L21.9997 12.2933L22.0869 12.2499L30.357 13.5991L31.7062 21.8257L31.6194 21.9997L31.6628 22.0871ZM8.8112 14.4262L12.2934 13.8602L11.3358 19.8236L8.8112 14.4262ZM24.1762 11.3359L29.5299 8.81135L30.0959 12.2936L24.1762 11.3359ZM21.9998 10.9442L16.8638 8.5065H27.1797L21.9998 10.9442ZM19.8235 11.3359L13.9038 12.2935L14.4698 8.81128L19.8235 11.3359ZM12.5111 12.5112L8.2019 13.2077L3.76208 3.76238L13.2074 8.2022L12.5111 12.5112ZM10.9442 22.0001L8.50643 27.1361V16.8637L10.9442 22.0001ZM11.3358 24.1764L12.2934 30.0961L8.81121 29.5301L11.3358 24.1764ZM13.8604 31.7065L19.8235 32.6641L14.4698 35.1886L13.8604 31.7065ZM21.9999 33.0557L27.1359 35.4935H16.8636L21.9999 33.0557ZM24.1763 32.6641L30.0959 31.7065L29.53 35.1887L24.1763 32.6641ZM31.4886 31.4888L35.7979 30.7923L40.2377 40.2376L30.7924 35.7546L31.4886 31.4888ZM33.0556 21.9999L35.4933 16.8639V27.1798L33.0556 21.9999ZM32.6639 19.8236L31.7063 13.9039L35.1886 14.4699L32.6639 19.8236ZM29.922 7.20077H14.0782L5.32928 3.06549H38.6709L29.922 7.20077ZM7.20094 14.0778V29.9216L3.06565 38.6705V5.32888L7.20094 14.0778ZM14.078 36.7988H29.9217L38.6706 40.9338L5.32905 40.9341L14.078 36.7988ZM36.799 29.9218V14.078L40.934 5.32912V38.6707L36.799 29.9218Z" fill="#272B65"/>
</svg>
