<svg width="44" height="44" viewBox="0 0 44 44" fill="none" xmlns="http://www.w3.org/2000/svg">
<path fill-rule="evenodd" clip-rule="evenodd" d="M8.95015 8.30266L12.3174 9.74576L16.2674 6.36043L14.3332 3.45879L8.95015 8.30266ZM12.4374 11.2058C12.3478 11.2058 12.2566 11.1883 12.1716 11.1512L7.44906 9.12712C7.23778 9.03669 7.08678 8.84464 7.04975 8.61729C7.01186 8.39051 7.09223 8.15971 7.26361 8.00584L14.01 1.93412C14.1558 1.80322 14.3473 1.74036 14.5456 1.76619C14.74 1.7903 14.9142 1.89824 15.0227 2.06157L17.7215 6.10949C17.9103 6.39282 17.8584 6.77347 17.5986 6.99591L12.8761 11.0432C12.7518 11.1506 12.5953 11.2057 12.4374 11.2057V11.2058Z" fill="#272B65"/>
<path fill-rule="evenodd" clip-rule="evenodd" d="M28.1723 6.35979L32.1218 9.74542L35.4896 8.30232L30.1066 3.45897L28.1723 6.35979ZM32.0023 11.206C31.8439 11.206 31.688 11.15 31.5631 11.0432L26.8406 6.99534C26.5817 6.77344 26.5288 6.39307 26.7186 6.10891L29.417 2.06101C29.5258 1.89766 29.6998 1.79059 29.8941 1.76562C30.0919 1.74007 30.284 1.80265 30.4298 1.93355L37.1764 8.00527C37.3478 8.15914 37.4279 8.38994 37.3903 8.61729C37.3524 8.84465 37.202 9.03641 36.9901 9.12741L32.2676 11.1512C32.1826 11.1877 32.0922 11.206 32.0023 11.206V11.206Z" fill="#272B65"/>
<path fill-rule="evenodd" clip-rule="evenodd" d="M17.5208 5.80835H26.9186L28.7176 3.10992H15.7211L17.5208 5.80835ZM27.2794 7.15783H17.1593C16.9342 7.15783 16.7229 7.04501 16.5981 6.85756L13.8993 2.80965C13.7618 2.60239 13.7483 2.33657 13.8657 2.11667C13.9832 1.89764 14.2119 1.76042 14.4608 1.76042H29.978C30.2269 1.76042 30.4557 1.89764 30.5728 2.11667C30.6902 2.33657 30.6767 2.60239 30.5392 2.80965L27.8465 6.84867C27.8284 6.87651 27.8089 6.90264 27.7874 6.92704C27.767 6.95057 27.7449 6.97211 27.7211 6.99249V6.99306C27.6031 7.09497 27.4501 7.15698 27.2819 7.15784L27.2794 7.15783Z" fill="#272B65"/>
<path fill-rule="evenodd" clip-rule="evenodd" d="M8.95014 35.6978L14.3332 40.5418L16.2674 37.6402L12.3174 34.2548L8.95014 35.6978ZM14.4615 42.24C14.2962 42.24 14.1348 42.1786 14.01 42.0667L7.26361 35.9946C7.09224 35.8408 7.01186 35.6103 7.04975 35.3835C7.08678 35.1561 7.23778 34.9638 7.44906 34.8734L12.1716 32.8496C12.4078 32.7482 12.6811 32.7901 12.876 32.9575L17.5986 37.0045C17.8584 37.2273 17.9103 37.6079 17.7215 37.8912L15.0227 41.9392C14.9142 42.1022 14.74 42.2101 14.5456 42.2345C14.5175 42.238 14.4891 42.24 14.4615 42.24V42.24Z" fill="#272B65"/>
<path fill-rule="evenodd" clip-rule="evenodd" d="M8.38925 9.5301V34.47L11.7625 33.024V10.9759L8.38925 9.5301ZM7.71464 36.1676C7.58489 36.1676 7.45485 36.1305 7.34289 36.0562C7.15401 35.9313 7.04004 35.7195 7.04004 35.493V8.50716C7.04004 8.28038 7.15401 8.06881 7.34289 7.94393C7.53178 7.81849 7.77263 7.79753 7.98047 7.8871L12.703 9.9112C12.9513 10.0177 13.1118 10.2614 13.1118 10.5313V33.4693C13.1118 33.7392 12.9513 33.9834 12.703 34.0894L7.98047 36.1132C7.8955 36.1505 7.80507 36.168 7.71464 36.168V36.1676Z" fill="#272B65"/>
<path fill-rule="evenodd" clip-rule="evenodd" d="M28.1723 37.6403L30.1065 40.5414L35.4896 35.6981L32.1217 34.255L28.1723 37.6403ZM29.9785 42.2394C29.9507 42.2394 29.9225 42.2383 29.8941 42.2348C29.6998 42.2098 29.5258 42.1025 29.417 41.9391L26.7186 37.8915C26.5288 37.6073 26.5817 37.227 26.8406 37.0048L31.5631 32.9569C31.7589 32.7904 32.0333 32.7485 32.2676 32.849L36.9901 34.8731C37.202 34.9641 37.3524 35.1558 37.3903 35.3832C37.4279 35.6105 37.3478 35.841 37.1764 35.9949L30.4298 42.0669C30.3049 42.1789 30.1439 42.2394 29.9785 42.2394V42.2394Z" fill="#272B65"/>
<path fill-rule="evenodd" clip-rule="evenodd" d="M27.2795 40.8902H28.7179L26.9186 38.1915H17.5209L15.7216 40.8902H27.2795ZM29.9782 42.2394H14.461C14.2122 42.2394 13.9834 42.1025 13.8662 41.8832C13.7488 41.6633 13.7623 41.3975 13.8998 41.1905L16.5986 37.1426C16.724 36.9548 16.9344 36.8423 17.1598 36.8423H27.2821C27.4501 36.8429 27.6033 36.9052 27.7213 37.0068V37.0077C27.7449 37.0277 27.7673 37.0493 27.7874 37.0731C27.8089 37.0972 27.8284 37.1236 27.8468 37.1512L30.5392 41.1905C30.677 41.3975 30.6905 41.6633 30.5731 41.8832C30.4556 42.1025 30.2269 42.2394 29.978 42.2394L29.9782 42.2394Z" fill="#272B65"/>
<path fill-rule="evenodd" clip-rule="evenodd" d="M32.6772 33.0249L36.0504 34.4705V9.53063L32.6772 10.9757V33.0249ZM36.7251 36.168C36.6346 36.168 36.5442 36.1499 36.4592 36.1134L31.7367 34.0893C31.4884 33.9834 31.3276 33.7394 31.3276 33.4696V10.5315C31.3276 10.2616 31.4884 10.0174 31.7367 9.91143L36.4592 7.88762C36.6671 7.79864 36.9071 7.8193 37.0968 7.94418C37.2857 8.06905 37.3997 8.2809 37.3997 8.50769V35.4935C37.3997 35.7203 37.2857 35.9321 37.0968 36.057C36.9849 36.1311 36.8545 36.1681 36.7251 36.1681V36.168Z" fill="#272B65"/>
<path fill-rule="evenodd" clip-rule="evenodd" d="M13.1124 14.4694V29.5302L15.7697 21.9998L13.1124 14.4694ZM12.4384 34.1431C12.3999 34.1431 12.3623 34.1405 12.3238 34.1336C12 34.0776 11.7632 33.7969 11.7632 33.4685V10.5304C11.7632 10.202 12 9.92124 12.3238 9.86526C12.6448 9.81273 12.964 9.99616 13.0739 10.3059L17.1218 21.7746C17.1732 21.9198 17.1732 22.0789 17.1218 22.2241L13.0739 33.6928C12.9775 33.9661 12.7197 34.1429 12.4384 34.1429V34.1431Z" fill="#272B65"/>
<path fill-rule="evenodd" clip-rule="evenodd" d="M28.6702 21.9999L31.3279 29.5303V14.4695L28.6702 21.9999ZM32.0016 34.1439C31.7203 34.1439 31.4634 33.9674 31.3661 33.6941L27.3182 22.2247C27.2676 22.0797 27.2676 21.9204 27.3182 21.7755L31.3661 10.3061C31.4763 9.99633 31.7973 9.81231 32.1165 9.86542C32.4409 9.9214 32.6771 10.2021 32.6771 10.5308V33.4689C32.6771 33.7976 32.4409 34.078 32.1165 34.134C32.0786 34.1409 32.0401 34.1435 32.0017 34.1435L32.0016 34.1439Z" fill="#272B65"/>
<path fill-rule="evenodd" clip-rule="evenodd" d="M27.8226 7.83667L27.398 12.079L30.7917 10.3821L27.8226 7.83667ZM26.6049 13.9044C26.4705 13.9044 26.3371 13.8639 26.2222 13.7849C26.0199 13.6454 25.9093 13.4072 25.9334 13.1623L26.6081 6.41564C26.633 6.16561 26.7958 5.95031 27.0283 5.85644C27.2606 5.764 27.5278 5.80735 27.7187 5.9704L32.4412 10.0183C32.6132 10.1662 32.6996 10.3889 32.6712 10.6134C32.6436 10.8373 32.5058 11.0331 32.3043 11.1344L26.9069 13.8329C26.8113 13.8808 26.708 13.9043 26.6049 13.9043L26.6049 13.9044Z" fill="#272B65"/>
<path fill-rule="evenodd" clip-rule="evenodd" d="M13.6479 10.3821L17.0413 12.079L16.617 7.83667L13.6479 10.3821ZM17.8348 13.9044C17.7323 13.9044 17.6284 13.8809 17.5333 13.8329L12.136 11.1342C11.9336 11.0332 11.7961 10.8374 11.7682 10.6135C11.7407 10.3887 11.8271 10.1662 11.999 10.0184L16.7216 5.97047C16.9119 5.80713 17.1792 5.76407 17.4111 5.85651C17.6445 5.95037 17.8064 6.16539 17.8314 6.41571L18.5063 13.1624C18.5304 13.4072 18.4198 13.6455 18.2175 13.785C18.1035 13.8639 17.9692 13.9044 17.8348 13.9044L17.8348 13.9044Z" fill="#272B65"/>
<path fill-rule="evenodd" clip-rule="evenodd" d="M18.5391 7.15767L21.917 11.5004L25.7774 7.15767H18.5391ZM21.8819 13.2294H21.8595C21.6592 13.2228 21.4723 13.1275 21.3497 12.969L16.6269 6.89729C16.4693 6.69405 16.44 6.41818 16.5534 6.1868C16.6668 5.95543 16.9016 5.80817 17.1594 5.80817H27.2788C27.5446 5.80817 27.7855 5.96405 27.8943 6.20633C28.0028 6.44919 27.9597 6.73253 27.7829 6.93146L22.3855 13.0035C22.258 13.147 22.074 13.2294 21.8817 13.2294L21.8819 13.2294Z" fill="#272B65"/>
<path fill-rule="evenodd" clip-rule="evenodd" d="M18.0636 8.74464L18.4339 12.4458L20.6549 12.0752L18.0636 8.74464ZM17.8342 13.9044C17.6872 13.9044 17.5434 13.8564 17.4246 13.7651C17.2762 13.652 17.1811 13.4818 17.1631 13.2969L16.4882 6.55059C16.4586 6.2509 16.63 5.96842 16.9093 5.85647C17.1852 5.74509 17.5075 5.83063 17.6918 6.06889L22.4143 12.1406C22.5607 12.3284 22.5972 12.5792 22.5108 12.8006C22.4244 13.0219 22.2275 13.1818 21.9926 13.2203L17.9447 13.8949C17.9083 13.9015 17.8712 13.9043 17.8342 13.9043L17.8342 13.9044Z" fill="#272B65"/>
<path fill-rule="evenodd" clip-rule="evenodd" d="M23.2217 12.0645L26.0039 12.4618L26.4018 8.48591L23.2217 12.0645ZM26.6056 13.9043C26.574 13.9043 26.5416 13.9014 26.51 13.8968L21.7872 13.2222C21.5418 13.1878 21.3345 13.0204 21.249 12.7862C21.164 12.5537 21.2131 12.2918 21.3793 12.1061L26.7764 6.0344C26.9699 5.81508 27.2845 5.74705 27.5509 5.86503C27.8187 5.98245 27.9806 6.25889 27.9516 6.54968L27.277 13.2963C27.2581 13.4792 27.1662 13.6471 27.0218 13.7605C26.9018 13.8535 26.7554 13.9043 26.6056 13.9043L26.6056 13.9043Z" fill="#272B65"/>
<path fill-rule="evenodd" clip-rule="evenodd" d="M13.6296 11.8804L16.2276 19.2411L17.0931 13.6123L13.6296 11.8804ZM16.4848 22.6744C16.202 22.6744 15.9457 22.4956 15.8492 22.2243L11.8013 10.7549C11.7095 10.4954 11.785 10.2066 11.9908 10.0244C12.198 9.84235 12.494 9.80389 12.7397 9.92647L18.1368 12.6252C18.3986 12.7561 18.5464 13.0414 18.5019 13.3308L17.1525 22.101C17.1054 22.4073 16.8562 22.6421 16.5479 22.6705C16.5272 22.6725 16.5063 22.6739 16.4848 22.6739L16.4848 22.6744Z" fill="#272B65"/>
<path fill-rule="evenodd" clip-rule="evenodd" d="M27.3469 13.6124L28.2124 19.2409L30.8104 11.8802L27.3469 13.6124ZM27.9547 22.6743C27.9337 22.6743 27.9127 22.6731 27.8918 22.6711C27.5835 22.6427 27.334 22.4079 27.2875 22.1016L25.938 13.3314C25.8935 13.0421 26.0408 12.7567 26.3032 12.6258L31.7003 9.92709C31.9446 9.80423 32.2414 9.8427 32.4484 10.025C32.6551 10.207 32.7297 10.4958 32.6387 10.7556L28.5908 22.225C28.4944 22.4962 28.238 22.6748 27.9547 22.6748L27.9547 22.6743Z" fill="#272B65"/>
<path fill-rule="evenodd" clip-rule="evenodd" d="M27.3988 31.9213L27.8231 36.1636L30.7922 33.6182L27.3988 31.9213ZM27.28 38.1917C27.195 38.1917 27.11 38.1759 27.0291 38.1429C26.7957 38.0493 26.6338 37.834 26.6088 37.5843L25.9339 30.8379C25.9098 30.5931 26.0203 30.3542 26.2227 30.2153C26.4245 30.0755 26.6869 30.0565 26.9068 30.1665L32.3042 32.8652C32.5066 32.9662 32.6441 33.162 32.6719 33.3868C32.6995 33.6107 32.6131 33.834 32.4417 33.981L27.7192 38.0289C27.5951 38.1354 27.4384 38.1917 27.2799 38.1917H27.28Z" fill="#272B65"/>
<path fill-rule="evenodd" clip-rule="evenodd" d="M13.648 33.6178L16.6171 36.1633L17.0413 31.921L13.648 33.6178ZM17.1602 38.1913C17.0023 38.1913 16.845 38.1359 16.7216 38.0294L11.999 33.9815C11.8271 33.8337 11.7407 33.6109 11.7682 33.3864C11.7961 33.1622 11.9336 32.9668 12.136 32.8654L17.5333 30.167C17.7538 30.0562 18.015 30.0757 18.2174 30.2149C18.4198 30.3544 18.5303 30.5927 18.5062 30.8376L17.8313 37.5839C17.8063 37.8342 17.6444 38.0495 17.4111 38.1434C17.3301 38.1759 17.2451 38.1914 17.1602 38.1914L17.1602 38.1913Z" fill="#272B65"/>
<path fill-rule="evenodd" clip-rule="evenodd" d="M18.5393 36.8423H25.7776L21.9172 32.4995L18.5393 36.8423ZM27.2793 38.1914H17.1599C16.9021 38.1914 16.6673 38.0445 16.5539 37.8131C16.4405 37.5817 16.4698 37.3058 16.6274 37.1026L21.3502 31.0309C21.4728 30.8721 21.6596 30.7771 21.86 30.7702C22.0773 30.7616 22.2542 30.8472 22.3862 30.9964L27.7836 37.0681C27.9604 37.2674 28.0035 37.5507 27.895 37.7936C27.7862 38.0356 27.5453 38.1914 27.2795 38.1914H27.2793Z" fill="#272B65"/>
<path fill-rule="evenodd" clip-rule="evenodd" d="M18.434 31.5547L18.0637 35.2558L20.6547 31.9241L18.434 31.5547ZM17.1594 38.1919C17.0753 38.1919 16.99 38.1755 16.9091 38.1439C16.6297 38.032 16.4584 37.7492 16.4882 37.4495L17.1628 30.7032C17.1818 30.5174 17.2762 30.3475 17.4246 30.2341C17.573 30.1216 17.7614 30.0742 17.9448 30.1052L21.9927 30.7801C22.2275 30.8186 22.4244 30.9785 22.5109 31.1995C22.5973 31.4208 22.5608 31.672 22.4144 31.8595L17.6919 37.9312C17.5615 38.0994 17.3632 38.1919 17.1594 38.1919L17.1594 38.1919Z" fill="#272B65"/>
<path fill-rule="evenodd" clip-rule="evenodd" d="M23.2216 31.9353L26.4017 35.5139L26.0038 31.538L23.2216 31.9353ZM27.2802 38.1913C27.0913 38.1913 26.9064 38.1124 26.7764 37.9654L21.3793 31.8937C21.2131 31.708 21.164 31.4462 21.249 31.2137C21.3345 30.9794 21.5418 30.8121 21.7872 30.7776L26.51 30.103C26.692 30.0774 26.8769 30.126 27.0219 30.2394C27.1663 30.3527 27.2581 30.5207 27.2771 30.7035L27.9517 37.4502C27.9807 37.7407 27.8188 38.0174 27.5509 38.1348C27.464 38.1733 27.3715 38.1914 27.2802 38.1914L27.2802 38.1913Z" fill="#272B65"/>
<path fill-rule="evenodd" clip-rule="evenodd" d="M16.2267 24.758L13.6287 32.1187L17.0921 30.3868L16.2267 24.758ZM12.4371 34.1433C12.2767 34.1433 12.1168 34.0859 11.9908 33.9748C11.7841 33.7925 11.7094 33.5037 11.8004 33.2439L15.8483 21.7745C15.9523 21.4831 16.2422 21.2963 16.5479 21.3281C16.8562 21.3563 17.1051 21.5911 17.1516 21.8968L18.5011 30.667C18.5462 30.9563 18.3983 31.2417 18.1359 31.3734L12.7388 34.0719C12.643 34.1192 12.5399 34.1428 12.4371 34.1428V34.1433Z" fill="#272B65"/>
<path fill-rule="evenodd" clip-rule="evenodd" d="M27.3474 30.3867L30.8109 32.1185L28.2129 24.7579L27.3474 30.3867ZM32.0025 34.1432C31.8997 34.1432 31.7967 34.1202 31.7008 34.0723L26.3037 31.3736C26.0413 31.2427 25.894 30.9573 25.9385 30.668L27.288 21.8978C27.3345 21.5915 27.584 21.3567 27.8923 21.3283C28.196 21.2978 28.4874 21.4836 28.5913 21.7749L32.6392 33.2443C32.7302 33.5041 32.6556 33.7926 32.4489 33.9749C32.3229 34.0863 32.1635 34.1437 32.0025 34.1437L32.0025 34.1432Z" fill="#272B65"/>
</svg>
