<svg width="42" height="42" viewBox="0 0 42 42" fill="none" xmlns="http://www.w3.org/2000/svg">
<path d="M41.2396 20.9785C41.2396 18.1957 40.6737 15.5434 39.6726 13.1519V13.1086V13.0652C38.6716 10.7174 37.2352 8.58665 35.4505 6.80386L35.3637 6.71711L35.3203 6.67374L35.2768 6.63037C33.4053 4.80417 31.1852 3.32589 28.7478 2.28227C28.7044 2.28227 28.7044 2.2389 28.6606 2.2389H28.5735C26.1794 1.28169 23.6549 0.76 20.9997 0.76C18.214 0.76 15.5588 1.32535 13.1648 2.32532H13.1214H13.078C10.7277 3.3253 8.59472 4.76017 6.81003 6.54297L6.76661 6.58634C6.76661 6.58634 6.72319 6.58634 6.72319 6.62972L6.63636 6.71646C4.80822 8.58599 3.32838 10.8038 2.28365 13.2386C2.28365 13.282 2.24023 13.282 2.24023 13.3257V13.4127C1.28201 15.8042 0.759766 18.3261 0.759766 20.9785C0.759766 23.7613 1.32571 26.4136 2.32674 28.8051V28.8484V28.8918C3.32779 31.2396 4.76418 33.3703 6.54887 35.1965C6.59229 35.2398 6.63601 35.2835 6.67943 35.3269H6.72284L6.76626 35.3703C8.63777 37.1965 10.8579 38.6747 13.2953 39.7184C13.3387 39.7184 13.3387 39.7617 13.3825 39.7617H13.4259C15.7762 40.7183 18.3008 41.24 20.956 41.24C23.7417 41.24 26.3969 40.6747 28.8344 39.6313H28.8778H28.9212C31.2715 38.6313 33.4045 37.1964 35.1892 35.4136C35.2763 35.3703 35.3198 35.3266 35.3632 35.2398C37.1913 33.3703 38.7148 31.1525 39.7159 28.6743C39.7159 28.6743 39.7159 28.6309 39.7593 28.6309V28.5439C40.7175 26.1526 41.2398 23.6307 41.2398 20.9783L41.2396 20.9785ZM38.7587 27.5007L34.6237 25.892L39.8469 22.2396C39.7598 24.0658 39.3681 25.8483 38.7587 27.5007ZM28.9651 38.1535L27.1804 34.1099L33.4484 35.2404C32.0992 36.4144 30.5756 37.371 28.9651 38.1536V38.1535ZM8.55094 35.2403L14.8623 34.1099L13.2519 38.2842C11.5543 37.4577 9.98733 36.4578 8.55094 35.2403ZM2.10901 22.2395L7.37594 25.8918L3.28432 27.718C2.67464 26.0226 2.23959 24.1964 2.10901 22.2395ZM3.24063 14.4564L7.37563 16.0651L2.15246 19.7174C2.2396 17.8912 2.63127 16.1087 3.24063 14.4564ZM13.0342 3.80353L14.8189 7.8471L8.55094 6.71668C9.9002 5.58625 11.4238 4.58603 13.0342 3.80345V3.80353ZM33.4484 6.71675L27.1371 7.84718L28.7475 3.67285C30.4451 4.49938 32.012 5.49929 33.4484 6.71675ZM39.8904 19.7176L34.6234 16.0652L38.715 14.239C39.3247 15.9345 39.7598 17.7606 39.8904 19.7176ZM20.9996 28.8486L15.4281 26.5441L13.1212 20.9785L15.4281 15.413L20.9996 13.1085L26.5711 15.413L28.878 20.9785L26.5711 26.5441L20.9996 28.8486ZM12.2507 19.6741L9.85659 16.413L13.8611 15.8043L12.2507 19.6741ZM13.9045 26.1962L9.89997 25.5442L12.294 22.2831L13.9045 26.1962ZM29.7483 22.2831L32.1424 25.5442L28.0945 26.1963L29.7483 22.2831ZM28.0945 15.761L32.099 16.413L29.7484 19.6741L28.0945 15.761ZM32.7518 15.1522L27.6157 14.326L26.8321 9.23874L34.0577 7.93424L32.7518 15.1522ZM25.6133 9.89088L26.2227 13.8911L22.3054 12.2824L25.6133 9.89088ZM20.9995 11.6303L16.8208 8.58668L20.9995 2.54252L25.1783 8.54297L20.9995 11.6303ZM19.6936 12.239L15.7764 13.8477L16.4291 9.84746L19.6936 12.239ZM14.3833 14.3694L9.24729 15.1522L7.9414 7.9343L15.167 9.23881L14.3833 14.3694ZM8.59423 16.8043L11.641 20.9786L8.59423 25.1529L2.54397 20.9786L8.59423 16.8043ZM9.24732 26.8049L14.3834 27.6311L15.167 32.7184L7.94143 34.0229L9.24732 26.8049ZM16.3858 32.0663L15.7764 28.066L19.6937 29.6747L16.3858 32.0663ZM20.9995 30.3269L25.1783 33.3705L20.9995 39.4146L16.8208 33.4142L20.9995 30.3269ZM22.3054 29.7181L26.2227 28.1094L25.5699 32.1097L22.3054 29.7181ZM27.6157 27.5877L32.7518 26.8049L34.0577 34.0228L26.8321 32.7183L27.6157 27.5877ZM33.4048 25.1529L30.358 20.9785L33.4048 16.8042L39.4551 20.9785L33.4048 25.1529ZM34.1448 14.8044L35.2764 8.54305C36.4517 9.89088 37.4093 11.3692 38.1927 13.0216L34.1448 14.8044ZM25.9181 7.32566L22.2619 2.10802C24.0901 2.23844 25.8313 2.62969 27.4851 3.19504L25.9181 7.32566ZM16.0375 7.36903L14.2094 3.28174C15.9503 2.62965 17.7787 2.19471 19.6937 2.06427L16.0375 7.36903ZM6.72271 8.54309L7.85433 14.8478L3.67558 13.239C4.50298 11.5433 5.50395 9.97797 6.72271 8.54309ZM7.85433 27.153L6.72271 33.4143C5.5474 32.0665 4.5898 30.5882 3.80639 28.9358L7.85433 27.153ZM16.0809 34.6317L19.7371 39.8493C17.909 39.7189 16.1678 39.3277 14.514 38.7623L16.0809 34.6317ZM25.9616 34.5883L27.7897 38.6756C26.0488 39.3277 24.2204 39.7626 22.3054 39.8931L25.9616 34.5883ZM35.2764 33.4143L34.1448 27.1096L38.3235 28.7183C37.4961 30.4141 36.4952 31.9794 35.2764 33.4143Z" fill="#272B65"/>
</svg>
