<svg width="44" height="44" viewBox="0 0 44 44" fill="none" xmlns="http://www.w3.org/2000/svg">
<path d="M42.0654 6.99454L36.0456 1.89084C36.0021 1.84733 35.9148 1.80351 35.8712 1.80351H35.8277C35.7404 1.76 35.6969 1.76 35.6096 1.76H8.34621C8.25888 1.76 8.21537 1.76 8.12804 1.80351H8.08453C8.04102 1.84702 7.95369 1.84702 7.91017 1.89084L1.93381 7.03832L1.84679 7.12534C1.84679 7.16885 1.80328 7.16885 1.80328 7.21267V7.25618C1.80328 7.29969 1.75977 7.29969 1.75977 7.34351V7.38702V7.51786V36.4825V36.6133V36.6568C1.75977 36.7003 1.75977 36.7441 1.80328 36.7441V36.7876C1.80328 36.8312 1.84679 36.8312 1.84679 36.875C1.84679 36.875 1.84679 36.9185 1.8903 36.9185L1.93381 36.962L7.90986 42.1092C7.95337 42.1527 8.0407 42.1965 8.08421 42.1965H8.12773C8.21505 42.24 8.25857 42.24 8.34589 42.24H35.6092C35.6966 42.24 35.7401 42.24 35.8274 42.1965H35.8709C35.9144 42.153 36.0018 42.153 36.0453 42.1092L42.0657 37.0061C42.1966 36.8752 42.2839 36.7006 42.2839 36.5262L42.2836 7.51802C42.2836 7.30016 42.1963 7.12538 42.0654 6.99454ZM30.244 12.2729C28.4119 12.2729 26.5799 12.0112 24.6605 11.4005C26.798 10.8334 28.9353 9.6993 31.0728 7.9546C30.6365 9.52466 30.3749 10.9642 30.244 12.2729ZM13.3189 12.2729C13.2754 10.9642 13.0573 9.56844 12.7083 8.04161C14.802 9.83016 16.9395 10.9642 19.1206 11.4441C17.1142 12.0983 15.1948 12.3599 13.3189 12.2729ZM10.4837 19.9502C10.222 17.2893 9.34963 14.7591 7.95367 12.5346C9.30585 13.0145 10.6581 13.3635 12.0542 13.4943C12.0106 16.1987 11.3561 18.3363 10.4837 19.9502ZM10.4402 23.9633C11.3564 25.621 12.0979 27.7583 12.1849 30.5065C10.658 30.6809 9.13148 31.0299 7.64843 31.5971C9.17502 29.2417 10.0911 26.6242 10.4402 23.9633ZM19.3826 32.6004C17.2451 33.1675 15.1078 34.3016 12.9267 36.0463C13.2757 34.4759 13.4501 33.0363 13.4939 31.7277C15.4133 31.641 17.3762 31.9462 19.3826 32.6004ZM22 32.1643C19.0774 30.9429 16.2418 30.3758 13.5375 30.4196C13.4066 26.6682 12.1414 23.92 10.7892 22.0007C12.1414 20.1251 13.3193 17.3769 13.4067 13.5818H13.9739C16.5913 13.5818 19.2957 13.0146 22.0438 11.8371C24.792 13.0149 27.4965 13.5818 30.1138 13.5818H30.1573C29.9391 17.0274 30.5933 19.8192 32.1202 21.9999C30.6371 24.1375 30.0264 26.9292 30.2881 30.4189C27.6268 30.3753 24.8351 30.943 22 32.1643ZM30.4189 31.728C30.5933 33.0367 30.8553 34.4324 31.2478 35.9593C29.1541 34.2146 27.0166 33.0366 24.8355 32.5568C26.7549 31.9461 28.6307 31.6845 30.4189 31.728ZM32.4257 24.0943C32.8182 26.537 33.9087 28.9362 35.6537 31.3355C34.345 30.8991 32.9928 30.594 31.5971 30.4631C31.3786 27.9331 31.6841 25.8393 32.4257 24.0943ZM32.4257 19.9503C31.5968 18.2056 31.2478 16.0245 31.4225 13.538C32.862 13.4071 34.3016 13.1016 35.6973 12.6218C33.9087 15.021 32.8182 17.464 32.4257 19.9503ZM31.5533 12.2292C31.7277 10.7023 32.0767 9.00118 32.6003 7.21294L36.7881 10.79C35.0866 11.5751 33.3419 12.0548 31.5533 12.2292ZM21.5204 10.4845C18.7286 10.441 15.9369 9.13235 13.1451 6.68956H30.55C27.4528 9.26314 24.4429 10.5719 21.5204 10.4845ZM12.011 12.1858C10.3533 11.9676 8.7829 11.5316 7.21245 10.7897L11.1821 7.21262C11.6619 9.04496 11.9236 10.7027 12.011 12.1858ZM6.68915 12.9708C8.25952 15.4574 9.17572 18.2491 9.26273 21.2152C9.39357 24.5304 8.4777 27.7584 6.68915 30.6375V12.9708ZM12.1854 31.8152C12.1419 33.2983 11.8799 34.956 11.3565 36.7881L7.21253 33.211C8.87022 32.4694 10.5277 31.9896 12.1854 31.8152ZM22.48 33.5165C25.2718 33.56 28.0635 34.8687 30.8553 37.3114H13.4504C16.5477 34.7379 19.5575 33.473 22.48 33.5165ZM31.7277 31.8152C33.429 31.9896 35.1302 32.4694 36.7879 33.2113L32.8621 36.7884C32.3385 34.956 31.9458 33.2983 31.7277 31.8152ZM37.3113 31.3354C34.8685 28.282 33.6033 25.1847 33.6033 22.0877C33.6033 18.9469 34.8682 15.8061 37.3113 12.7091V31.3354ZM37.922 10.0482L33.2543 6.03499C34.0832 5.2061 34.912 4.29029 35.7409 3.33054L40.6264 7.51835C39.6232 8.34692 38.7073 9.17573 37.922 10.0482ZM31.9895 5.38082H11.7928C11.0947 4.68281 10.3967 3.89777 9.69901 3.02542L34.2142 3.02512C33.4727 3.89778 32.7312 4.6828 31.9895 5.38082ZM8.25943 3.33062C9.00095 4.33383 9.78633 5.20618 10.5714 6.03506L6.1219 10.0482C5.33687 9.13203 4.42067 8.30353 3.41745 7.51819L8.25943 3.33062ZM3.02463 8.82683C3.89698 9.52484 4.68232 10.3099 5.38003 11.1822V32.5131C4.68201 33.3854 3.89698 34.2578 3.02463 35.0431V8.82683ZM5.99104 33.8655L10.7895 38.0095C9.96066 38.8383 9.13185 39.7542 8.30297 40.7139L3.37368 36.4829C4.33335 35.6541 5.2057 34.7814 5.99104 33.8655ZM12.0109 38.6201H32.2076C32.9056 39.3182 33.6036 40.1032 34.3013 40.9755L9.78609 40.9759C10.5276 40.1032 11.2691 39.3182 12.0109 38.6201ZM35.7409 40.6704C34.9994 39.7107 34.214 38.7948 33.4725 37.9659L37.922 33.9527C38.7508 34.7816 39.6667 35.654 40.6264 36.4828L35.7409 40.6704ZM38.62 32.8185V11.2259C39.318 10.4409 40.103 9.69903 40.9754 8.914V35.0868C40.103 34.3453 39.318 33.6038 38.62 32.8185Z" fill="#272B65"/>
</svg>
