<svg width="44" height="44" viewBox="0 0 44 44" fill="none" xmlns="http://www.w3.org/2000/svg">
<path fill-rule="evenodd" clip-rule="evenodd" d="M16.9632 24.7671L21.0892 7.20605L21.9882 7.41705L17.8002 25.2451L3.38316 39.0761L2.74316 38.4091L16.9632 24.7671ZM27.0372 24.7671L22.9122 7.20605L22.0122 7.41705L26.2012 25.2451L39.6942 38.1521L40.3322 37.4841L27.0372 24.7671Z" fill="#272B65"/>
<path fill-rule="evenodd" clip-rule="evenodd" d="M21.8261 33.468L4.3561 38.952L4.0791 38.07L21.8231 32.5L40.6111 38.3L40.3391 39.184L21.8261 33.468ZM21.5381 17.942V6.15601H22.4621V17.942H21.5381Z" fill="#272B65"/>
<path fill-rule="evenodd" clip-rule="evenodd" d="M2.81494 38.8139L12.9759 32.3439L13.4719 33.1239L3.31094 39.5939L2.81494 38.8139ZM40.7169 38.3479L30.5549 32.1079L30.0719 32.8959L40.2339 39.1359L40.7169 38.3479Z" fill="#272B65"/>
<path fill-rule="evenodd" clip-rule="evenodd" d="M22 5L2 39.667H42L22 5ZM22 6.849L3.6 38.742H40.4L22 6.85V6.849Z" fill="#272B65"/>
<path fill-rule="evenodd" clip-rule="evenodd" d="M21.9999 16.5559L12.3999 33.1959H31.5999L21.9999 16.5559ZM21.9999 18.4049L13.9999 32.2699H29.9999L21.9999 18.4039V18.4049Z" fill="#272B65"/>
</svg>
