<svg width="44" height="44" viewBox="0 0 44 44" fill="none" xmlns="http://www.w3.org/2000/svg">
<path d="M43.5207 39.2449C43.5207 39.1983 43.5674 39.1513 43.5674 39.1046V39.0579V38.9175V38.8708V38.7305C41.0871 28.7623 35.7054 18.607 27.1878 7.79653C27.1878 7.79653 27.1878 7.74985 27.1412 7.74985L27.0945 7.70317C25.5968 5.78434 24.0057 3.8655 22.2742 1.90004L22.2275 1.85336H22.1809C22.1342 1.85336 22.1342 1.80668 22.0872 1.80668H22.0405C21.9938 1.80668 21.9938 1.76 21.9468 1.76H21.9001H21.8534H21.8068H21.7601H21.7134H21.6667H21.62H21.5734H21.5267C21.48 1.76 21.48 1.80668 21.433 1.80668H21.3863H21.3396L21.2929 1.85336H21.2463L21.1996 1.90004C16.6134 7.0947 12.6822 12.3362 9.4531 17.5776C8.79794 18.4669 8.23642 19.4028 7.76835 20.3857C6.0836 23.2871 4.63284 26.1888 3.41624 29.0435C3.41624 29.0435 3.41624 29.0901 3.36956 29.0901C3.32287 29.1368 3.32288 29.1838 3.32288 29.2305C1.96588 32.366 0.889259 35.5015 0 38.6371V38.7774V38.8241V38.9645V39.0112C0 39.0578 0.0466812 39.1048 0.0466812 39.1515C0.093362 39.1982 0.0933622 39.2452 0.140371 39.2919C0.140371 39.2919 0.187051 39.2919 0.187051 39.3386L0.280741 39.4323C0.280741 39.4323 0.327421 39.4323 0.327421 39.4789C0.374102 39.4789 0.421111 39.5256 0.467792 39.5256H0.514474C3.18217 40.2275 5.80281 40.7423 8.47017 41.1638H8.51685H8.56353C12.6349 41.8189 16.7533 42.1467 20.8248 42.1933C21.1055 42.1933 21.3863 42.24 21.667 42.24C21.9477 42.24 22.2285 42.24 22.5092 42.1933C26.6276 42.1466 30.699 41.8189 34.7705 41.1638H34.8172H34.9108C37.5785 40.7426 40.2459 40.1808 42.8665 39.5256H42.9132C42.9599 39.5256 43.0069 39.4789 43.0536 39.4789C43.0536 39.4789 43.1003 39.4789 43.1003 39.4323C43.1469 39.4323 43.1469 39.3856 43.194 39.3386L43.2406 39.2919C43.4737 39.3853 43.4737 39.3386 43.5207 39.2449L43.5207 39.2449ZM35.5647 39.7598C35.5647 39.5727 35.518 39.3853 35.518 39.2449C36.2199 39.2916 36.922 39.3853 37.6239 39.432C36.922 39.5257 36.2201 39.6661 35.5646 39.7598H35.5647ZM31.6337 37.4198H31.4933C29.2001 37.0921 26.9538 36.718 24.7542 36.2498C27.6089 35.4076 30.417 34.4714 33.1312 33.3484C33.4119 34.7991 33.646 36.2498 33.88 37.7005C33.1315 37.6068 32.3826 37.5131 31.6338 37.4198L31.6337 37.4198ZM21.0572 40.9297C18.5302 40.7893 16.0966 39.9468 14.0374 38.5431C16.7051 38.122 19.3257 37.6072 21.8527 36.9987C24.3797 37.6072 27.0008 38.1687 29.6681 38.5431C27.5623 39.9471 25.1753 40.7893 22.6483 40.9297H21.0573H21.0572ZM12.0718 37.4198C11.323 37.5135 10.5741 37.6069 9.82556 37.7006C10.0596 36.2028 10.2937 34.7522 10.5744 33.3484C13.2887 34.4717 16.0965 35.4543 18.9514 36.2499C16.7518 36.718 14.5056 37.0921 12.2123 37.4198C12.2123 37.3728 12.1186 37.3728 12.0719 37.4198L12.0718 37.4198ZM6.1283 39.3854C6.83015 39.3387 7.53234 39.2917 8.23416 39.1983C8.23416 39.3854 8.18748 39.5727 8.18748 39.7131C7.4853 39.6661 6.78343 39.5257 6.12825 39.3854H6.1283ZM4.49018 30.4936C4.72424 30.634 4.9583 30.7277 5.19202 30.868C4.49018 31.851 3.83503 32.8802 3.1328 33.9568C3.55424 32.7869 3.97534 31.6169 4.49013 30.4936L4.49018 30.4936ZM2.05689 38.2156C3.50757 35.8756 4.95833 33.6294 6.45606 31.4765C7.39195 31.8976 8.32784 32.3187 9.26414 32.7401C8.9364 34.3782 8.65566 36.063 8.42194 37.7944C6.31541 37.9814 4.20955 38.1218 2.05698 38.2155L2.05689 38.2156ZM7.85977 26.9371C7.85977 24.8778 8.32789 22.9124 9.12342 21.0872C9.63822 20.198 10.153 19.3088 10.7145 18.4195C11.7441 17.0625 13.0544 15.8926 14.5521 14.9564C13.6163 17.1559 12.8207 19.4021 12.0718 21.6484C10.6678 23.3799 9.26373 25.1583 7.8601 27.0301C7.85977 27.0307 7.85977 26.9837 7.85977 26.937L7.85977 26.9371ZM17.1727 9.24716L17.2194 9.29384C16.6109 10.5105 16.0027 11.7275 15.441 12.9441C14.8795 13.2249 14.3177 13.5056 13.7562 13.8334C14.8328 12.289 15.9561 10.7917 17.1728 9.24721L17.1727 9.24716ZM29.9956 13.8803C29.4341 13.5526 28.8723 13.2252 28.2641 12.9444C27.7026 11.7277 27.1408 10.5108 26.4856 9.29413L26.5323 9.24745C27.749 10.7916 28.919 12.3359 29.9955 13.8804L29.9956 13.8803ZM18.3427 10.1831C19.1849 10.8849 20.0274 11.5871 20.823 12.336C18.7171 14.3015 16.6113 16.4543 14.5988 18.7473C15.6751 15.8459 16.892 12.9911 18.3428 10.1831L18.3427 10.1831ZM35.8454 27.0774C34.4413 25.2056 33.0373 23.4271 31.6337 21.6957C30.8848 19.4025 30.0893 17.2029 29.1533 15.0037C33.2717 17.5306 35.8454 22.0235 35.8454 26.9373V27.0774V27.0774ZM29.153 18.7939C27.0938 16.5007 25.0346 14.3481 22.9288 12.3826C23.771 11.6337 24.5669 10.9319 25.4091 10.2297C26.8132 12.9911 28.0301 15.8458 29.1531 18.7938L29.153 18.7939ZM21.8525 11.4C20.9166 10.5578 19.9337 9.71523 18.9978 8.91965C19.887 7.2349 20.8696 5.50343 21.8525 3.81868C22.8821 5.50343 23.818 7.18818 24.7072 8.91965C23.7713 9.71519 22.7884 10.5574 21.8525 11.4ZM21.8525 13.3185C24.7539 16.0328 27.6087 19.0746 30.3699 22.3974C31.3528 25.4862 32.195 28.6217 32.8502 31.8976C29.2933 33.3482 25.643 34.5653 21.8525 35.5479C18.0619 34.612 14.4116 33.395 10.8548 31.8976C11.51 28.6217 12.3525 25.4393 13.3351 22.3974C16.0965 19.0279 18.9512 16.0328 21.8525 13.3185ZM32.7098 25.2989C33.7394 26.6559 34.769 28.0133 35.7986 29.464C35.9856 29.7448 36.173 30.0255 36.4071 30.3062C35.6582 30.6807 34.9094 31.0081 34.1608 31.3358C33.7391 29.2766 33.2712 27.2644 32.7098 25.2989H32.7098ZM37.1086 28.8556C37.2023 28.2471 37.249 27.5919 37.249 26.9367C37.249 26.5623 37.249 26.1412 37.2023 25.7668C37.7638 26.89 38.2786 28.013 38.7934 29.1363C38.419 29.3233 38.0915 29.5107 37.7171 29.6978C37.53 29.417 37.296 29.1363 37.1086 28.8556L37.1086 28.8556ZM7.85943 29.4641C8.889 28.0134 9.91866 26.6093 10.9949 25.299C10.4335 27.2645 9.96537 29.277 9.54427 31.3358C8.79541 31.0081 8.04654 30.6807 7.29802 30.3063C7.48507 30.0255 7.67245 29.7448 7.8595 29.4641H7.85943ZM34.4411 32.7399C35.377 32.3188 36.3129 31.8977 37.2492 31.4762C38.7469 33.6291 40.1976 35.8754 41.6483 38.2153C39.4954 38.1686 37.3896 38.0283 35.3304 37.8409C35.0496 36.0625 34.7685 34.3777 34.4411 32.7399V32.7399ZM38.5125 30.8678C38.7932 30.7274 39.074 30.587 39.3547 30.4466C39.8695 31.7103 40.3843 32.9736 40.8054 34.2373C40.0569 33.0673 39.2613 31.9443 38.5124 30.8678L38.5125 30.8678ZM6.59578 28.8556C6.40873 29.1363 6.22135 29.4171 5.9873 29.6978C5.65955 29.5574 5.33214 29.37 5.00436 29.2297C5.47248 28.2001 5.94025 27.1704 6.45504 26.0942C6.45504 26.3749 6.40836 26.6556 6.40836 26.9834C6.45536 27.5919 6.50205 28.2003 6.59573 28.8555L6.59578 28.8556ZM9.54385 39.9937C9.59053 39.7129 9.63754 39.3852 9.68422 39.1044C10.4798 39.0107 11.2753 38.9174 12.0709 38.8237C12.9131 39.5255 13.8023 40.134 14.7852 40.6021C13.0071 40.4614 11.2756 40.2744 9.54383 39.9936L9.54385 39.9937ZM31.6328 38.8237C32.4284 38.9174 33.2239 39.0108 34.0195 39.1044C34.0662 39.3852 34.1132 39.7129 34.1599 39.9937C32.4284 40.2745 30.65 40.4618 28.9185 40.6022C29.9014 40.1341 30.7906 39.5256 31.6328 38.8238L31.6328 38.8237Z" fill="#272B65"/>
</svg>
